<?xml version="1.0" standalone="no"?>
<svg xmlns:xlink="http://www.w3.org/1999/xlink" id="wave" style="transform:rotate(180deg); transition: 0.3s" viewBox="0 0 1440 100" version="1.1" xmlns="http://www.w3.org/2000/svg"><defs><linearGradient id="sw-gradient-0" x1="0" x2="0" y1="1" y2="0"><stop stop-color="rgba(254, 245, 250, 1)" offset="0%"/><stop stop-color="rgba(254, 245, 250, 1)" offset="100%"/></linearGradient></defs><path style="transform:translate(0, 0px); opacity:1" fill="url(#sw-gradient-0)" d="M0,0L24,0C48,0,96,0,144,6.7C192,13,240,27,288,38.3C336,50,384,60,432,53.3C480,47,528,23,576,20C624,17,672,33,720,43.3C768,53,816,57,864,48.3C912,40,960,20,1008,16.7C1056,13,1104,27,1152,31.7C1200,37,1248,33,1296,38.3C1344,43,1392,57,1440,66.7C1488,77,1536,83,1584,76.7C1632,70,1680,50,1728,48.3C1776,47,1824,63,1872,65C1920,67,1968,53,2016,48.3C2064,43,2112,47,2160,40C2208,33,2256,17,2304,20C2352,23,2400,47,2448,55C2496,63,2544,57,2592,53.3C2640,50,2688,50,2736,51.7C2784,53,2832,57,2880,55C2928,53,2976,47,3024,41.7C3072,37,3120,33,3168,28.3C3216,23,3264,17,3312,25C3360,33,3408,57,3432,68.3L3456,80L3456,100L3432,100C3408,100,3360,100,3312,100C3264,100,3216,100,3168,100C3120,100,3072,100,3024,100C2976,100,2928,100,2880,100C2832,100,2784,100,2736,100C2688,100,2640,100,2592,100C2544,100,2496,100,2448,100C2400,100,2352,100,2304,100C2256,100,2208,100,2160,100C2112,100,2064,100,2016,100C1968,100,1920,100,1872,100C1824,100,1776,100,1728,100C1680,100,1632,100,1584,100C1536,100,1488,100,1440,100C1392,100,1344,100,1296,100C1248,100,1200,100,1152,100C1104,100,1056,100,1008,100C960,100,912,100,864,100C816,100,768,100,720,100C672,100,624,100,576,100C528,100,480,100,432,100C384,100,336,100,288,100C240,100,192,100,144,100C96,100,48,100,24,100L0,100Z"/></svg>